<?xml version="1.0" encoding="UTF-8" standalone="no"?>
<svg width="14px" height="24px" viewBox="0 0 14 24" version="1.1" xmlns="http://www.w3.org/2000/svg" xmlns:xlink="http://www.w3.org/1999/xlink" xmlns:sketch="http://www.bohemiancoding.com/sketch/ns">
    <!-- Generator: Sketch Beta 3.1 (8657) - http://www.bohemiancoding.com/sketch -->
    <title>location</title>
    <desc>Created with Sketch Beta.</desc>
    <defs></defs>
    <g id="Home" stroke="none" stroke-width="1" fill="none" fill-rule="evenodd" sketch:type="MSPage">
        <g id="Artboard-1" sketch:type="MSArtboardGroup" transform="translate(-523.000000, -382.000000)" fill="#333333">
            <g id="location" sketch:type="MSLayerGroup" transform="translate(524.000000, 383.000000)">
                <path d="M5.996,-0.179 C2.456,-0.179 -0.423,2.701 -0.423,6.24 C-0.423,8.716 1.901,13.292 3.978,16.891 C1.62,17.269 0.068,18.262 0.068,19.461 C0.068,21.025 2.617,22.205 5.996,22.205 C9.375,22.205 11.923,21.025 11.923,19.461 C11.923,18.262 10.372,17.269 8.015,16.891 C10.091,13.289 12.415,8.711 12.415,6.24 C12.416,2.701 9.535,-0.179 5.996,-0.179 L5.996,-0.179 Z M5.996,0.642 C9.084,0.642 11.595,3.152 11.595,6.241 C11.595,8.775 8.722,14.07 7.008,17.004 C6.594,17.711 6.239,18.293 5.996,18.689 C5.754,18.293 5.4,17.711 4.986,17.004 C3.271,14.072 0.396,8.778 0.396,6.241 C0.396,3.151 2.908,0.642 5.996,0.642 L5.996,0.642 Z M11.104,19.462 C11.104,20.374 9.006,21.387 5.996,21.387 C2.985,21.387 0.887,20.374 0.887,19.462 C0.887,18.782 2.201,17.937 4.414,17.648 C4.52,17.83 4.61,17.977 4.706,18.139 C4.758,18.228 4.814,18.32 4.864,18.404 C4.987,18.605 5.089,18.773 5.186,18.933 C5.217,18.983 5.25,19.038 5.278,19.083 C5.384,19.256 5.466,19.388 5.528,19.489 C5.534,19.497 5.544,19.513 5.55,19.523 C5.612,19.624 5.649,19.68 5.649,19.68 L5.994,20.225 L6.341,19.68 C6.341,19.68 6.374,19.628 6.435,19.532 C6.449,19.51 6.469,19.475 6.488,19.446 C6.55,19.35 6.621,19.235 6.717,19.077 C6.739,19.043 6.765,19 6.788,18.964 C6.89,18.795 7.002,18.612 7.132,18.396 C7.176,18.322 7.227,18.236 7.275,18.156 C7.374,17.99 7.468,17.835 7.578,17.648 C9.792,17.937 11.104,18.782 11.104,19.462 L11.104,19.462 Z" id="Shape" sketch:type="MSShapeGroup"></path>
                <path d="M10.013,6.24 C10.013,4.026 8.211,2.225 5.996,2.225 C3.782,2.225 1.981,4.026 1.981,6.24 C1.981,8.456 3.782,10.259 5.996,10.259 C8.21,10.259 10.013,8.456 10.013,6.24 L10.013,6.24 Z M2.801,6.24 C2.801,4.477 4.235,3.045 5.996,3.045 C7.759,3.045 9.192,4.478 9.192,6.24 C9.192,8.004 7.758,9.438 5.996,9.438 C4.234,9.438 2.801,8.004 2.801,6.24 L2.801,6.24 Z" id="Shape" sketch:type="MSShapeGroup"></path>
            </g>
        </g>
    </g>
</svg>